<?xml version="1.0" encoding="utf-8" standalone="no"?>
<!DOCTYPE svg PUBLIC "-//W3C//DTD SVG 1.1//EN"
  "http://www.w3.org/Graphics/SVG/1.1/DTD/svg11.dtd">
<svg height="345.6pt" version="1.1" viewBox="0 0 460.8 345.6" width="460.8pt" xmlns="http://www.w3.org/2000/svg" xmlns:xlink="http://www.w3.org/1999/xlink">
 <metadata>
  <rdf:RDF xmlns:cc="http://creativecommons.org/ns#" xmlns:dc="http://purl.org/dc/elements/1.1/" xmlns:rdf="http://www.w3.org/1999/02/22-rdf-syntax-ns#">
   <cc:Work>
    <dc:type rdf:resource="http://purl.org/dc/dcmitype/StillImage"/>
    <dc:date>2021-07-30T14:26:34.491075</dc:date>
    <dc:format>image/svg+xml</dc:format>
    <dc:creator>
     <cc:Agent>
      <dc:title>Matplotlib v3.4.2, https://matplotlib.org/</dc:title>
     </cc:Agent>
    </dc:creator>
   </cc:Work>
  </rdf:RDF>
 </metadata>
 <defs>
  <style type="text/css">*{stroke-linecap:butt;stroke-linejoin:round;}</style>
 </defs>
 <g id="figure_1">
  <g id="patch_1">
   <path d="M 0 345.6 
L 460.8 345.6 
L 460.8 0 
L 0 0 
z
" style="fill:#ffffff;"/>
  </g>
  <g id="axes_1">
   <g id="patch_2">
    <path d="M 369.216 174.528 
C 369.216 157.055246 365.774248 139.752393 359.087715 123.609673 
C 352.401182 107.466954 342.599903 92.798303 330.2448 80.4432 
C 317.889697 68.088097 303.221046 58.286818 287.078327 51.600285 
C 270.935607 44.913752 253.632754 41.472 236.16 41.472 
C 218.687246 41.472 201.384393 44.913752 185.241673 51.600285 
C 169.098954 58.286818 154.430303 68.088097 142.0752 80.4432 
C 129.720097 92.798303 119.918818 107.466954 113.232285 123.609673 
C 106.545752 139.752393 103.104 157.055246 103.104 174.528 
C 103.104 192.000754 106.545752 209.303607 113.232285 225.446327 
C 119.918818 241.589046 129.720097 256.257697 142.0752 268.6128 
C 154.430303 280.967903 169.098954 290.769182 185.241673 297.455715 
C 201.384393 304.142248 218.687246 307.584 236.16 307.584 
C 253.632754 307.584 270.935607 304.142248 287.078327 297.455715 
C 303.221046 290.769182 317.889697 280.967903 330.2448 268.6128 
C 342.599903 256.257697 352.401182 241.589046 359.087715 225.446327 
C 365.774248 209.303607 369.216 192.000754 369.216 174.528 
M 236.16 174.528 
C 236.16 174.528 236.16 174.528 236.16 174.528 
C 236.16 174.528 236.16 174.528 236.16 174.528 
C 236.16 174.528 236.16 174.528 236.16 174.528 
C 236.16 174.528 236.16 174.528 236.16 174.528 
C 236.16 174.528 236.16 174.528 236.16 174.528 
C 236.16 174.528 236.16 174.528 236.16 174.528 
C 236.16 174.528 236.16 174.528 236.16 174.528 
C 236.16 174.528 236.16 174.528 236.16 174.528 
C 236.16 174.528 236.16 174.528 236.16 174.528 
C 236.16 174.528 236.16 174.528 236.16 174.528 
C 236.16 174.528 236.16 174.528 236.16 174.528 
C 236.16 174.528 236.16 174.528 236.16 174.528 
C 236.16 174.528 236.16 174.528 236.16 174.528 
C 236.16 174.528 236.16 174.528 236.16 174.528 
C 236.16 174.528 236.16 174.528 236.16 174.528 
C 236.16 174.528 236.16 174.528 236.16 174.528 
M 369.216 174.528 
z
" style="fill:#ffffff;"/>
   </g>
   <g id="patch_3">
    <path clip-path="url(#p4dd4cef6c7)" d="M 236.16 174.528 
C 236.16 174.528 236.16 174.528 236.16 174.528 
C 236.16 174.528 236.16 174.528 236.16 174.528 
L 218.684365 92.120599 
C 221.555104 91.511819 224.455694 91.053462 227.374269 90.747402 
C 230.292845 90.441343 233.225421 90.288 236.16 90.288 
z
" style="fill:#2720d3;"/>
   </g>
   <g id="patch_4">
    <path clip-path="url(#p4dd4cef6c7)" d="M 236.16 174.528 
C 236.16 174.528 236.16 174.528 236.16 174.528 
C 236.16 174.528 236.16 174.528 236.16 174.528 
L 215.996122 129.124031 
C 217.577812 128.421603 219.195127 127.802305 220.84145 127.268669 
C 222.487773 126.735032 224.160856 126.287788 225.853856 125.928763 
z
" style="fill:#2720d3;"/>
   </g>
   <g id="patch_5">
    <path clip-path="url(#p4dd4cef6c7)" d="M 236.16 174.528 
C 236.16 174.528 236.16 174.528 236.16 174.528 
C 236.16 174.528 236.16 174.528 236.16 174.528 
L 205.326174 131.962418 
C 206.808986 130.888293 208.346912 129.892384 209.933663 128.978765 
C 211.520413 128.065146 213.15382 127.235064 214.827202 126.491916 
z
" style="fill:#2720d3;"/>
   </g>
   <g id="patch_6">
    <path clip-path="url(#p4dd4cef6c7)" d="M 236.16 174.528 
C 236.16 174.528 236.16 174.528 236.16 174.528 
C 236.16 174.528 236.16 174.528 236.16 174.528 
L 198.769159 140.733252 
C 199.94643 139.430707 201.190961 138.190568 202.497661 137.017909 
C 203.80436 135.84525 205.171443 134.741672 206.593317 133.711689 
z
" style="fill:#2720d3;"/>
   </g>
   <g id="patch_7">
    <path clip-path="url(#p4dd4cef6c7)" d="M 236.16 174.528 
C 236.16 174.528 236.16 174.528 236.16 174.528 
C 236.16 174.528 236.16 174.528 236.16 174.528 
L 211.252479 160.069252 
C 211.756163 159.201575 212.304843 158.36081 212.896273 157.550396 
C 213.487704 156.739983 214.121078 155.961027 214.793805 155.216715 
z
" style="fill:#2720d3;"/>
   </g>
   <g id="patch_8">
    <path clip-path="url(#p4dd4cef6c7)" d="M 236.16 174.528 
C 236.16 174.528 236.16 174.528 236.16 174.528 
C 236.16 174.528 236.16 174.528 236.16 174.528 
L 196.480539 161.511167 
C 196.933992 160.128896 197.459365 158.771263 198.054509 157.443823 
C 198.649652 156.116382 199.313753 154.820947 200.044095 153.562815 
z
" style="fill:#2720d3;"/>
   </g>
   <g id="patch_9">
    <path clip-path="url(#p4dd4cef6c7)" d="M 236.16 174.528 
C 236.16 174.528 236.16 174.528 236.16 174.528 
C 236.16 174.528 236.16 174.528 236.16 174.528 
L 212.538484 171.966442 
C 212.627718 171.143565 212.75989 170.325912 212.934459 169.516828 
C 213.109028 168.707745 213.325755 167.908336 213.583755 167.121871 
z
" style="fill:#2720d3;"/>
   </g>
   <g id="patch_10">
    <path clip-path="url(#p4dd4cef6c7)" d="M 236.16 174.528 
C 236.16 174.528 236.16 174.528 236.16 174.528 
C 236.16 174.528 236.16 174.528 236.16 174.528 
L 180.285909 180.187643 
C 180.08875 178.241217 179.993434 176.285817 180.000351 174.329443 
C 180.007268 172.373069 180.116408 170.418392 180.327326 168.473409 
z
" style="fill:#2720d3;"/>
   </g>
   <g id="patch_11">
    <path clip-path="url(#p4dd4cef6c7)" d="M 236.16 174.528 
C 236.16 174.528 236.16 174.528 236.16 174.528 
C 236.16 174.528 236.16 174.528 236.16 174.528 
L 208.73206 183.311401 
C 208.426082 182.355923 208.170241 181.385109 207.965582 180.40293 
C 207.760923 179.420751 207.607727 178.428548 207.50662 177.430381 
z
" style="fill:#2720d3;"/>
   </g>
   <g id="patch_12">
    <path clip-path="url(#p4dd4cef6c7)" d="M 236.16 174.528 
C 236.16 174.528 236.16 174.528 236.16 174.528 
C 236.16 174.528 236.16 174.528 236.16 174.528 
L 198.021066 196.308453 
C 197.262324 194.979847 196.573524 193.612501 195.957485 192.212009 
C 195.341446 190.811517 194.799009 189.37979 194.332392 187.922686 
z
" style="fill:#2720d3;"/>
   </g>
   <g id="patch_13">
    <path clip-path="url(#p4dd4cef6c7)" d="M 236.16 174.528 
C 236.16 174.528 236.16 174.528 236.16 174.528 
C 236.16 174.528 236.16 174.528 236.16 174.528 
L 210.357345 197.519664 
C 209.556409 196.620804 208.802989 195.680706 208.100166 194.703216 
C 207.397344 193.725725 206.746079 192.712177 206.149036 191.666717 
z
" style="fill:#2720d3;"/>
   </g>
   <g id="patch_14">
    <path clip-path="url(#p4dd4cef6c7)" d="M 236.16 174.528 
C 236.16 174.528 236.16 174.528 236.16 174.528 
C 236.16 174.528 236.16 174.528 236.16 174.528 
L 202.040504 220.935112 
C 200.423869 219.746527 198.870446 218.474279 197.386589 217.123571 
C 195.902733 215.772863 194.490469 214.345539 193.155576 212.84744 
z
" style="fill:#2720d3;"/>
   </g>
   <g id="patch_15">
    <path clip-path="url(#p4dd4cef6c7)" d="M 236.16 174.528 
C 236.16 174.528 236.16 174.528 236.16 174.528 
C 236.16 174.528 236.16 174.528 236.16 174.528 
L 210.034932 232.251223 
C 208.02409 231.341131 206.062176 230.326587 204.157217 229.21174 
C 202.252257 228.096893 200.406854 226.883266 198.628555 225.575823 
z
" style="fill:#2720d3;"/>
   </g>
   <g id="patch_16">
    <path clip-path="url(#p4dd4cef6c7)" d="M 236.16 174.528 
C 236.16 174.528 236.16 174.528 236.16 174.528 
C 236.16 174.528 236.16 174.528 236.16 174.528 
L 221.343256 242.041247 
C 218.991369 241.525092 216.668059 240.886394 214.382829 240.127766 
C 212.0976 239.369137 209.853572 238.491615 207.659926 237.498788 
z
" style="fill:#2720d3;"/>
   </g>
   <g id="patch_17">
    <path clip-path="url(#p4dd4cef6c7)" d="M 236.16 174.528 
C 236.16 174.528 236.16 174.528 236.16 174.528 
C 236.16 174.528 236.16 174.528 236.16 174.528 
L 235.620336 250.846092 
C 232.961724 250.827292 230.305909 250.669583 227.663756 250.373608 
C 225.021604 250.077633 222.396721 249.643798 219.799845 249.073877 
z
" style="fill:#2720d3;"/>
   </g>
   <g id="patch_18">
    <path clip-path="url(#p4dd4cef6c7)" d="M 236.16 174.528 
C 236.16 174.528 236.16 174.528 236.16 174.528 
C 236.16 174.528 236.16 174.528 236.16 174.528 
L 261.570925 298.674056 
C 257.246181 299.55927 252.878134 300.217894 248.484652 300.647235 
C 244.091171 301.076575 239.678254 301.276047 235.263954 301.244832 
z
" style="fill:#2720d3;"/>
   </g>
   <g id="patch_19">
    <path clip-path="url(#p4dd4cef6c7)" d="M 236.16 174.528 
C 236.16 174.528 236.16 174.528 236.16 174.528 
C 236.16 174.528 236.16 174.528 236.16 174.528 
L 270.380811 253.077338 
C 267.644472 254.269452 264.847707 255.317768 262.00196 256.217996 
C 259.156212 257.118225 256.265367 257.869138 253.341251 258.467663 
z
" style="fill:#2720d3;"/>
   </g>
   <g id="patch_20">
    <path clip-path="url(#p4dd4cef6c7)" d="M 236.16 174.528 
C 236.16 174.528 236.16 174.528 236.16 174.528 
C 236.16 174.528 236.16 174.528 236.16 174.528 
L 276.311765 230.789978 
C 274.351826 232.188702 272.320137 233.484057 270.225008 234.670744 
C 268.12988 235.85743 265.974172 236.933828 263.766705 237.895533 
z
" style="fill:#2720d3;"/>
   </g>
   <g id="patch_21">
    <path clip-path="url(#p4dd4cef6c7)" d="M 236.16 174.528 
C 236.16 174.528 236.16 174.528 236.16 174.528 
C 236.16 174.528 236.16 174.528 236.16 174.528 
L 282.333313 216.857597 
C 280.858722 218.466087 279.301088 219.996427 277.666782 221.442354 
C 276.032477 222.888282 274.323732 224.247824 272.547537 225.515417 
z
" style="fill:#2720d3;"/>
   </g>
   <g id="patch_22">
    <path clip-path="url(#p4dd4cef6c7)" d="M 236.16 174.528 
C 236.16 174.528 236.16 174.528 236.16 174.528 
C 236.16 174.528 236.16 174.528 236.16 174.528 
L 262.825009 190.260098 
C 262.276967 191.188998 261.68076 192.088627 261.038827 192.955304 
C 260.396895 193.821982 259.710114 194.654524 258.981293 195.449525 
z
" style="fill:#2720d3;"/>
   </g>
   <g id="patch_23">
    <path clip-path="url(#p4dd4cef6c7)" d="M 236.16 174.528 
C 236.16 174.528 236.16 174.528 236.16 174.528 
C 236.16 174.528 236.16 174.528 236.16 174.528 
L 268.921181 185.532483 
C 268.537829 186.673749 268.095104 187.794205 267.594816 188.889266 
C 267.094527 189.984328 266.53736 191.052499 265.925591 192.089411 
z
" style="fill:#2720d3;"/>
   </g>
   <g id="patch_24">
    <path clip-path="url(#p4dd4cef6c7)" d="M 236.16 174.528 
C 236.16 174.528 236.16 174.528 236.16 174.528 
C 236.16 174.528 236.16 174.528 236.16 174.528 
L 275.498021 179.075538 
C 275.339603 180.445915 275.109686 181.807078 274.80921 183.15346 
C 274.508734 184.499841 274.13811 185.829602 273.698853 187.137304 
z
" style="fill:#2720d3;"/>
   </g>
   <g id="patch_25">
    <path clip-path="url(#p4dd4cef6c7)" d="M 236.16 174.528 
C 236.16 174.528 236.16 174.528 236.16 174.528 
C 236.16 174.528 236.16 174.528 236.16 174.528 
L 287.054906 169.736035 
C 287.221839 171.509007 287.296013 173.289491 287.277124 175.070204 
C 287.258236 176.850917 287.146312 178.629427 286.941809 180.398459 
z
" style="fill:#2720d3;"/>
   </g>
   <g id="patch_26">
    <path clip-path="url(#p4dd4cef6c7)" d="M 236.16 174.528 
C 236.16 174.528 236.16 174.528 236.16 174.528 
C 236.16 174.528 236.16 174.528 236.16 174.528 
L 262.274894 166.368225 
C 262.559147 167.277962 262.795669 168.201931 262.983492 169.136353 
C 263.171315 170.070774 263.310183 171.014372 263.399527 171.963286 
z
" style="fill:#2720d3;"/>
   </g>
   <g id="patch_27">
    <path clip-path="url(#p4dd4cef6c7)" d="M 236.16 174.528 
C 236.16 174.528 236.16 174.528 236.16 174.528 
C 236.16 174.528 236.16 174.528 236.16 174.528 
L 268.802353 156.191415 
C 269.441126 157.328542 270.020042 158.498271 270.536735 159.695816 
C 271.053428 160.893362 271.507192 162.11709 271.89617 163.361992 
z
" style="fill:#2720d3;"/>
   </g>
   <g id="patch_28">
    <path clip-path="url(#p4dd4cef6c7)" d="M 236.16 174.528 
C 236.16 174.528 236.16 174.528 236.16 174.528 
C 236.16 174.528 236.16 174.528 236.16 174.528 
L 265.911087 148.393104 
C 266.821521 149.429511 267.677176 150.512784 268.474554 151.638491 
C 269.271931 152.764199 270.009942 153.930804 270.685566 155.133535 
z
" style="fill:#2720d3;"/>
   </g>
   <g id="patch_29">
    <path clip-path="url(#p4dd4cef6c7)" d="M 236.16 174.528 
C 236.16 174.528 236.16 174.528 236.16 174.528 
C 236.16 174.528 236.16 174.528 236.16 174.528 
L 277.926733 118.553313 
C 279.876664 120.008296 281.749235 121.564178 283.536785 123.214592 
C 285.324336 124.865007 287.024425 126.607701 288.630099 128.435546 
z
" style="fill:#2720d3;"/>
   </g>
   <g id="patch_30">
    <path clip-path="url(#p4dd4cef6c7)" d="M 236.16 174.528 
C 236.16 174.528 236.16 174.528 236.16 174.528 
C 236.16 174.528 236.16 174.528 236.16 174.528 
L 253.948889 135.952025 
C 255.292719 136.571718 256.60325 137.261208 257.875122 138.017674 
C 259.146993 138.774141 260.378468 139.596551 261.564508 140.481541 
z
" style="fill:#2720d3;"/>
   </g>
   <g id="patch_31">
    <path clip-path="url(#p4dd4cef6c7)" d="M 236.16 174.528 
C 236.16 174.528 236.16 174.528 236.16 174.528 
C 236.16 174.528 236.16 174.528 236.16 174.528 
L 248.745493 119.05783 
C 250.677849 119.496258 252.585975 120.035359 254.462067 120.672928 
C 256.338159 121.310498 258.179654 122.045665 259.97902 122.875423 
z
" style="fill:#2720d3;"/>
   </g>
   <g id="patch_32">
    <path clip-path="url(#p4dd4cef6c7)" d="M 236.16 174.528 
C 236.16 174.528 236.16 174.528 236.16 174.528 
C 236.16 174.528 236.16 174.528 236.16 174.528 
L 236.872746 124.13304 
C 238.628301 124.157869 240.381361 124.274416 242.124753 124.482204 
C 243.868145 124.689992 245.59949 124.988736 247.311703 125.377217 
z
" style="fill:#2720d3;"/>
   </g>
   <g id="matplotlib.axis_1">
    <g id="xtick_1">
     <g id="line2d_1">
      <path clip-path="url(#p4dd4cef6c7)" d="M 236.16 174.528 
L 236.16 41.472 
" style="fill:none;stroke:#b0b0b0;stroke-linecap:square;stroke-width:0.8;"/>
     </g>
     <g id="text_1">
      <!-- 0° (Forwards) -->
      <g transform="translate(202.27875 30.231375)scale(0.1 -0.1)">
       <defs>
        <path d="M 2034 4250 
Q 1547 4250 1301 3770 
Q 1056 3291 1056 2328 
Q 1056 1369 1301 889 
Q 1547 409 2034 409 
Q 2525 409 2770 889 
Q 3016 1369 3016 2328 
Q 3016 3291 2770 3770 
Q 2525 4250 2034 4250 
z
M 2034 4750 
Q 2819 4750 3233 4129 
Q 3647 3509 3647 2328 
Q 3647 1150 3233 529 
Q 2819 -91 2034 -91 
Q 1250 -91 836 529 
Q 422 1150 422 2328 
Q 422 3509 836 4129 
Q 1250 4750 2034 4750 
z
" id="DejaVuSans-30" transform="scale(0.015625)"/>
        <path d="M 1600 4347 
Q 1350 4347 1178 4173 
Q 1006 4000 1006 3750 
Q 1006 3503 1178 3333 
Q 1350 3163 1600 3163 
Q 1850 3163 2022 3333 
Q 2194 3503 2194 3750 
Q 2194 3997 2020 4172 
Q 1847 4347 1600 4347 
z
M 1600 4750 
Q 1800 4750 1984 4673 
Q 2169 4597 2303 4453 
Q 2447 4313 2519 4134 
Q 2591 3956 2591 3750 
Q 2591 3338 2302 3052 
Q 2013 2766 1594 2766 
Q 1172 2766 890 3047 
Q 609 3328 609 3750 
Q 609 4169 896 4459 
Q 1184 4750 1600 4750 
z
" id="DejaVuSans-b0" transform="scale(0.015625)"/>
        <path id="DejaVuSans-20" transform="scale(0.015625)"/>
        <path d="M 1984 4856 
Q 1566 4138 1362 3434 
Q 1159 2731 1159 2009 
Q 1159 1288 1364 580 
Q 1569 -128 1984 -844 
L 1484 -844 
Q 1016 -109 783 600 
Q 550 1309 550 2009 
Q 550 2706 781 3412 
Q 1013 4119 1484 4856 
L 1984 4856 
z
" id="DejaVuSans-28" transform="scale(0.015625)"/>
        <path d="M 628 4666 
L 3309 4666 
L 3309 4134 
L 1259 4134 
L 1259 2759 
L 3109 2759 
L 3109 2228 
L 1259 2228 
L 1259 0 
L 628 0 
L 628 4666 
z
" id="DejaVuSans-46" transform="scale(0.015625)"/>
        <path d="M 1959 3097 
Q 1497 3097 1228 2736 
Q 959 2375 959 1747 
Q 959 1119 1226 758 
Q 1494 397 1959 397 
Q 2419 397 2687 759 
Q 2956 1122 2956 1747 
Q 2956 2369 2687 2733 
Q 2419 3097 1959 3097 
z
M 1959 3584 
Q 2709 3584 3137 3096 
Q 3566 2609 3566 1747 
Q 3566 888 3137 398 
Q 2709 -91 1959 -91 
Q 1206 -91 779 398 
Q 353 888 353 1747 
Q 353 2609 779 3096 
Q 1206 3584 1959 3584 
z
" id="DejaVuSans-6f" transform="scale(0.015625)"/>
        <path d="M 2631 2963 
Q 2534 3019 2420 3045 
Q 2306 3072 2169 3072 
Q 1681 3072 1420 2755 
Q 1159 2438 1159 1844 
L 1159 0 
L 581 0 
L 581 3500 
L 1159 3500 
L 1159 2956 
Q 1341 3275 1631 3429 
Q 1922 3584 2338 3584 
Q 2397 3584 2469 3576 
Q 2541 3569 2628 3553 
L 2631 2963 
z
" id="DejaVuSans-72" transform="scale(0.015625)"/>
        <path d="M 269 3500 
L 844 3500 
L 1563 769 
L 2278 3500 
L 2956 3500 
L 3675 769 
L 4391 3500 
L 4966 3500 
L 4050 0 
L 3372 0 
L 2619 2869 
L 1863 0 
L 1184 0 
L 269 3500 
z
" id="DejaVuSans-77" transform="scale(0.015625)"/>
        <path d="M 2194 1759 
Q 1497 1759 1228 1600 
Q 959 1441 959 1056 
Q 959 750 1161 570 
Q 1363 391 1709 391 
Q 2188 391 2477 730 
Q 2766 1069 2766 1631 
L 2766 1759 
L 2194 1759 
z
M 3341 1997 
L 3341 0 
L 2766 0 
L 2766 531 
Q 2569 213 2275 61 
Q 1981 -91 1556 -91 
Q 1019 -91 701 211 
Q 384 513 384 1019 
Q 384 1609 779 1909 
Q 1175 2209 1959 2209 
L 2766 2209 
L 2766 2266 
Q 2766 2663 2505 2880 
Q 2244 3097 1772 3097 
Q 1472 3097 1187 3025 
Q 903 2953 641 2809 
L 641 3341 
Q 956 3463 1253 3523 
Q 1550 3584 1831 3584 
Q 2591 3584 2966 3190 
Q 3341 2797 3341 1997 
z
" id="DejaVuSans-61" transform="scale(0.015625)"/>
        <path d="M 2906 2969 
L 2906 4863 
L 3481 4863 
L 3481 0 
L 2906 0 
L 2906 525 
Q 2725 213 2448 61 
Q 2172 -91 1784 -91 
Q 1150 -91 751 415 
Q 353 922 353 1747 
Q 353 2572 751 3078 
Q 1150 3584 1784 3584 
Q 2172 3584 2448 3432 
Q 2725 3281 2906 2969 
z
M 947 1747 
Q 947 1113 1208 752 
Q 1469 391 1925 391 
Q 2381 391 2643 752 
Q 2906 1113 2906 1747 
Q 2906 2381 2643 2742 
Q 2381 3103 1925 3103 
Q 1469 3103 1208 2742 
Q 947 2381 947 1747 
z
" id="DejaVuSans-64" transform="scale(0.015625)"/>
        <path d="M 2834 3397 
L 2834 2853 
Q 2591 2978 2328 3040 
Q 2066 3103 1784 3103 
Q 1356 3103 1142 2972 
Q 928 2841 928 2578 
Q 928 2378 1081 2264 
Q 1234 2150 1697 2047 
L 1894 2003 
Q 2506 1872 2764 1633 
Q 3022 1394 3022 966 
Q 3022 478 2636 193 
Q 2250 -91 1575 -91 
Q 1294 -91 989 -36 
Q 684 19 347 128 
L 347 722 
Q 666 556 975 473 
Q 1284 391 1588 391 
Q 1994 391 2212 530 
Q 2431 669 2431 922 
Q 2431 1156 2273 1281 
Q 2116 1406 1581 1522 
L 1381 1569 
Q 847 1681 609 1914 
Q 372 2147 372 2553 
Q 372 3047 722 3315 
Q 1072 3584 1716 3584 
Q 2034 3584 2315 3537 
Q 2597 3491 2834 3397 
z
" id="DejaVuSans-73" transform="scale(0.015625)"/>
        <path d="M 513 4856 
L 1013 4856 
Q 1481 4119 1714 3412 
Q 1947 2706 1947 2009 
Q 1947 1309 1714 600 
Q 1481 -109 1013 -844 
L 513 -844 
Q 928 -128 1133 580 
Q 1338 1288 1338 2009 
Q 1338 2731 1133 3434 
Q 928 4138 513 4856 
z
" id="DejaVuSans-29" transform="scale(0.015625)"/>
       </defs>
       <use xlink:href="#DejaVuSans-30"/>
       <use x="63.623047" xlink:href="#DejaVuSans-b0"/>
       <use x="113.623047" xlink:href="#DejaVuSans-20"/>
       <use x="145.410156" xlink:href="#DejaVuSans-28"/>
       <use x="184.423828" xlink:href="#DejaVuSans-46"/>
       <use x="238.318359" xlink:href="#DejaVuSans-6f"/>
       <use x="299.5" xlink:href="#DejaVuSans-72"/>
       <use x="340.613281" xlink:href="#DejaVuSans-77"/>
       <use x="422.400391" xlink:href="#DejaVuSans-61"/>
       <use x="483.679688" xlink:href="#DejaVuSans-72"/>
       <use x="523.042969" xlink:href="#DejaVuSans-64"/>
       <use x="586.519531" xlink:href="#DejaVuSans-73"/>
       <use x="638.619141" xlink:href="#DejaVuSans-29"/>
      </g>
     </g>
    </g>
    <g id="xtick_2">
     <g id="line2d_2">
      <path clip-path="url(#p4dd4cef6c7)" d="M 236.16 174.528 
L 142.0752 80.4432 
" style="fill:none;stroke:#b0b0b0;stroke-linecap:square;stroke-width:0.8;"/>
     </g>
     <g id="text_2">
      <!-- 45° -->
      <g transform="translate(123.313205 73.30308)scale(0.1 -0.1)">
       <defs>
        <path d="M 2419 4116 
L 825 1625 
L 2419 1625 
L 2419 4116 
z
M 2253 4666 
L 3047 4666 
L 3047 1625 
L 3713 1625 
L 3713 1100 
L 3047 1100 
L 3047 0 
L 2419 0 
L 2419 1100 
L 313 1100 
L 313 1709 
L 2253 4666 
z
" id="DejaVuSans-34" transform="scale(0.015625)"/>
        <path d="M 691 4666 
L 3169 4666 
L 3169 4134 
L 1269 4134 
L 1269 2991 
Q 1406 3038 1543 3061 
Q 1681 3084 1819 3084 
Q 2600 3084 3056 2656 
Q 3513 2228 3513 1497 
Q 3513 744 3044 326 
Q 2575 -91 1722 -91 
Q 1428 -91 1123 -41 
Q 819 9 494 109 
L 494 744 
Q 775 591 1075 516 
Q 1375 441 1709 441 
Q 2250 441 2565 725 
Q 2881 1009 2881 1497 
Q 2881 1984 2565 2268 
Q 2250 2553 1709 2553 
Q 1456 2553 1204 2497 
Q 953 2441 691 2322 
L 691 4666 
z
" id="DejaVuSans-35" transform="scale(0.015625)"/>
       </defs>
       <use xlink:href="#DejaVuSans-34"/>
       <use x="63.623047" xlink:href="#DejaVuSans-35"/>
       <use x="127.246094" xlink:href="#DejaVuSans-b0"/>
      </g>
     </g>
    </g>
    <g id="xtick_3">
     <g id="line2d_3">
      <path clip-path="url(#p4dd4cef6c7)" d="M 236.16 174.528 
L 103.104 174.528 
" style="fill:none;stroke:#b0b0b0;stroke-linecap:square;stroke-width:0.8;"/>
     </g>
     <g id="text_3">
      <!-- 90° -->
      <g transform="translate(80.2415 177.287375)scale(0.1 -0.1)">
       <defs>
        <path d="M 703 97 
L 703 672 
Q 941 559 1184 500 
Q 1428 441 1663 441 
Q 2288 441 2617 861 
Q 2947 1281 2994 2138 
Q 2813 1869 2534 1725 
Q 2256 1581 1919 1581 
Q 1219 1581 811 2004 
Q 403 2428 403 3163 
Q 403 3881 828 4315 
Q 1253 4750 1959 4750 
Q 2769 4750 3195 4129 
Q 3622 3509 3622 2328 
Q 3622 1225 3098 567 
Q 2575 -91 1691 -91 
Q 1453 -91 1209 -44 
Q 966 3 703 97 
z
M 1959 2075 
Q 2384 2075 2632 2365 
Q 2881 2656 2881 3163 
Q 2881 3666 2632 3958 
Q 2384 4250 1959 4250 
Q 1534 4250 1286 3958 
Q 1038 3666 1038 3163 
Q 1038 2656 1286 2365 
Q 1534 2075 1959 2075 
z
" id="DejaVuSans-39" transform="scale(0.015625)"/>
       </defs>
       <use xlink:href="#DejaVuSans-39"/>
       <use x="63.623047" xlink:href="#DejaVuSans-30"/>
       <use x="127.246094" xlink:href="#DejaVuSans-b0"/>
      </g>
     </g>
    </g>
    <g id="xtick_4">
     <g id="line2d_4">
      <path clip-path="url(#p4dd4cef6c7)" d="M 236.16 174.528 
L 142.0752 268.6128 
" style="fill:none;stroke:#b0b0b0;stroke-linecap:square;stroke-width:0.8;"/>
     </g>
     <g id="text_4">
      <!-- 135° -->
      <g transform="translate(120.131955 281.27167)scale(0.1 -0.1)">
       <defs>
        <path d="M 794 531 
L 1825 531 
L 1825 4091 
L 703 3866 
L 703 4441 
L 1819 4666 
L 2450 4666 
L 2450 531 
L 3481 531 
L 3481 0 
L 794 0 
L 794 531 
z
" id="DejaVuSans-31" transform="scale(0.015625)"/>
        <path d="M 2597 2516 
Q 3050 2419 3304 2112 
Q 3559 1806 3559 1356 
Q 3559 666 3084 287 
Q 2609 -91 1734 -91 
Q 1441 -91 1130 -33 
Q 819 25 488 141 
L 488 750 
Q 750 597 1062 519 
Q 1375 441 1716 441 
Q 2309 441 2620 675 
Q 2931 909 2931 1356 
Q 2931 1769 2642 2001 
Q 2353 2234 1838 2234 
L 1294 2234 
L 1294 2753 
L 1863 2753 
Q 2328 2753 2575 2939 
Q 2822 3125 2822 3475 
Q 2822 3834 2567 4026 
Q 2313 4219 1838 4219 
Q 1578 4219 1281 4162 
Q 984 4106 628 3988 
L 628 4550 
Q 988 4650 1302 4700 
Q 1616 4750 1894 4750 
Q 2613 4750 3031 4423 
Q 3450 4097 3450 3541 
Q 3450 3153 3228 2886 
Q 3006 2619 2597 2516 
z
" id="DejaVuSans-33" transform="scale(0.015625)"/>
       </defs>
       <use xlink:href="#DejaVuSans-31"/>
       <use x="63.623047" xlink:href="#DejaVuSans-33"/>
       <use x="127.246094" xlink:href="#DejaVuSans-35"/>
       <use x="190.869141" xlink:href="#DejaVuSans-b0"/>
      </g>
     </g>
    </g>
    <g id="xtick_5">
     <g id="line2d_5">
      <path clip-path="url(#p4dd4cef6c7)" d="M 236.16 174.528 
L 236.16 307.584 
" style="fill:none;stroke:#b0b0b0;stroke-linecap:square;stroke-width:0.8;"/>
     </g>
     <g id="text_5">
      <!-- 180° (Backwards) -->
      <g transform="translate(191.586562 324.343375)scale(0.1 -0.1)">
       <defs>
        <path d="M 2034 2216 
Q 1584 2216 1326 1975 
Q 1069 1734 1069 1313 
Q 1069 891 1326 650 
Q 1584 409 2034 409 
Q 2484 409 2743 651 
Q 3003 894 3003 1313 
Q 3003 1734 2745 1975 
Q 2488 2216 2034 2216 
z
M 1403 2484 
Q 997 2584 770 2862 
Q 544 3141 544 3541 
Q 544 4100 942 4425 
Q 1341 4750 2034 4750 
Q 2731 4750 3128 4425 
Q 3525 4100 3525 3541 
Q 3525 3141 3298 2862 
Q 3072 2584 2669 2484 
Q 3125 2378 3379 2068 
Q 3634 1759 3634 1313 
Q 3634 634 3220 271 
Q 2806 -91 2034 -91 
Q 1263 -91 848 271 
Q 434 634 434 1313 
Q 434 1759 690 2068 
Q 947 2378 1403 2484 
z
M 1172 3481 
Q 1172 3119 1398 2916 
Q 1625 2713 2034 2713 
Q 2441 2713 2670 2916 
Q 2900 3119 2900 3481 
Q 2900 3844 2670 4047 
Q 2441 4250 2034 4250 
Q 1625 4250 1398 4047 
Q 1172 3844 1172 3481 
z
" id="DejaVuSans-38" transform="scale(0.015625)"/>
        <path d="M 1259 2228 
L 1259 519 
L 2272 519 
Q 2781 519 3026 730 
Q 3272 941 3272 1375 
Q 3272 1813 3026 2020 
Q 2781 2228 2272 2228 
L 1259 2228 
z
M 1259 4147 
L 1259 2741 
L 2194 2741 
Q 2656 2741 2882 2914 
Q 3109 3088 3109 3444 
Q 3109 3797 2882 3972 
Q 2656 4147 2194 4147 
L 1259 4147 
z
M 628 4666 
L 2241 4666 
Q 2963 4666 3353 4366 
Q 3744 4066 3744 3513 
Q 3744 3084 3544 2831 
Q 3344 2578 2956 2516 
Q 3422 2416 3680 2098 
Q 3938 1781 3938 1306 
Q 3938 681 3513 340 
Q 3088 0 2303 0 
L 628 0 
L 628 4666 
z
" id="DejaVuSans-42" transform="scale(0.015625)"/>
        <path d="M 3122 3366 
L 3122 2828 
Q 2878 2963 2633 3030 
Q 2388 3097 2138 3097 
Q 1578 3097 1268 2742 
Q 959 2388 959 1747 
Q 959 1106 1268 751 
Q 1578 397 2138 397 
Q 2388 397 2633 464 
Q 2878 531 3122 666 
L 3122 134 
Q 2881 22 2623 -34 
Q 2366 -91 2075 -91 
Q 1284 -91 818 406 
Q 353 903 353 1747 
Q 353 2603 823 3093 
Q 1294 3584 2113 3584 
Q 2378 3584 2631 3529 
Q 2884 3475 3122 3366 
z
" id="DejaVuSans-63" transform="scale(0.015625)"/>
        <path d="M 581 4863 
L 1159 4863 
L 1159 1991 
L 2875 3500 
L 3609 3500 
L 1753 1863 
L 3688 0 
L 2938 0 
L 1159 1709 
L 1159 0 
L 581 0 
L 581 4863 
z
" id="DejaVuSans-6b" transform="scale(0.015625)"/>
       </defs>
       <use xlink:href="#DejaVuSans-31"/>
       <use x="63.623047" xlink:href="#DejaVuSans-38"/>
       <use x="127.246094" xlink:href="#DejaVuSans-30"/>
       <use x="190.869141" xlink:href="#DejaVuSans-b0"/>
       <use x="240.869141" xlink:href="#DejaVuSans-20"/>
       <use x="272.65625" xlink:href="#DejaVuSans-28"/>
       <use x="311.669922" xlink:href="#DejaVuSans-42"/>
       <use x="380.273438" xlink:href="#DejaVuSans-61"/>
       <use x="441.552734" xlink:href="#DejaVuSans-63"/>
       <use x="496.533203" xlink:href="#DejaVuSans-6b"/>
       <use x="554.443359" xlink:href="#DejaVuSans-77"/>
       <use x="636.230469" xlink:href="#DejaVuSans-61"/>
       <use x="697.509766" xlink:href="#DejaVuSans-72"/>
       <use x="736.873047" xlink:href="#DejaVuSans-64"/>
       <use x="800.349609" xlink:href="#DejaVuSans-73"/>
       <use x="852.449219" xlink:href="#DejaVuSans-29"/>
      </g>
     </g>
    </g>
    <g id="xtick_6">
     <g id="line2d_6">
      <path clip-path="url(#p4dd4cef6c7)" d="M 236.16 174.528 
L 330.2448 268.6128 
" style="fill:none;stroke:#b0b0b0;stroke-linecap:square;stroke-width:0.8;"/>
     </g>
     <g id="text_6">
      <!-- 225° -->
      <g transform="translate(328.100545 281.27167)scale(0.1 -0.1)">
       <defs>
        <path d="M 1228 531 
L 3431 531 
L 3431 0 
L 469 0 
L 469 531 
Q 828 903 1448 1529 
Q 2069 2156 2228 2338 
Q 2531 2678 2651 2914 
Q 2772 3150 2772 3378 
Q 2772 3750 2511 3984 
Q 2250 4219 1831 4219 
Q 1534 4219 1204 4116 
Q 875 4013 500 3803 
L 500 4441 
Q 881 4594 1212 4672 
Q 1544 4750 1819 4750 
Q 2544 4750 2975 4387 
Q 3406 4025 3406 3419 
Q 3406 3131 3298 2873 
Q 3191 2616 2906 2266 
Q 2828 2175 2409 1742 
Q 1991 1309 1228 531 
z
" id="DejaVuSans-32" transform="scale(0.015625)"/>
       </defs>
       <use xlink:href="#DejaVuSans-32"/>
       <use x="63.623047" xlink:href="#DejaVuSans-32"/>
       <use x="127.246094" xlink:href="#DejaVuSans-35"/>
       <use x="190.869141" xlink:href="#DejaVuSans-b0"/>
      </g>
     </g>
    </g>
    <g id="xtick_7">
     <g id="line2d_7">
      <path clip-path="url(#p4dd4cef6c7)" d="M 236.16 174.528 
L 369.216 174.528 
" style="fill:none;stroke:#b0b0b0;stroke-linecap:square;stroke-width:0.8;"/>
     </g>
     <g id="text_7">
      <!-- 270° -->
      <g transform="translate(371.17225 177.287375)scale(0.1 -0.1)">
       <defs>
        <path d="M 525 4666 
L 3525 4666 
L 3525 4397 
L 1831 0 
L 1172 0 
L 2766 4134 
L 525 4134 
L 525 4666 
z
" id="DejaVuSans-37" transform="scale(0.015625)"/>
       </defs>
       <use xlink:href="#DejaVuSans-32"/>
       <use x="63.623047" xlink:href="#DejaVuSans-37"/>
       <use x="127.246094" xlink:href="#DejaVuSans-30"/>
       <use x="190.869141" xlink:href="#DejaVuSans-b0"/>
      </g>
     </g>
    </g>
    <g id="xtick_8">
     <g id="line2d_8">
      <path clip-path="url(#p4dd4cef6c7)" d="M 236.16 174.528 
L 330.2448 80.4432 
" style="fill:none;stroke:#b0b0b0;stroke-linecap:square;stroke-width:0.8;"/>
     </g>
     <g id="text_8">
      <!-- 315° -->
      <g transform="translate(328.100545 73.30308)scale(0.1 -0.1)">
       <use xlink:href="#DejaVuSans-33"/>
       <use x="63.623047" xlink:href="#DejaVuSans-31"/>
       <use x="127.246094" xlink:href="#DejaVuSans-35"/>
       <use x="190.869141" xlink:href="#DejaVuSans-b0"/>
      </g>
     </g>
    </g>
   </g>
   <g id="matplotlib.axis_2">
    <g id="ytick_1">
     <g id="line2d_9">
      <path clip-path="url(#p4dd4cef6c7)" d="M 236.16 156.528 
C 233.796262 156.528 231.455508 156.993605 229.271698 157.898168 
C 227.087889 158.802732 225.103493 160.128663 223.432078 161.800078 
C 221.760663 163.471493 220.434732 165.455889 219.530168 167.639698 
C 218.625605 169.823508 218.16 172.164262 218.16 174.528 
C 218.16 176.891738 218.625605 179.232492 219.530168 181.416302 
C 220.434732 183.600111 221.760663 185.584507 223.432078 187.255922 
C 225.103493 188.927337 227.087889 190.253268 229.271698 191.157832 
C 231.455508 192.062395 233.796262 192.528 236.16 192.528 
C 238.523738 192.528 240.864492 192.062395 243.048302 191.157832 
C 245.232111 190.253268 247.216507 188.927337 248.887922 187.255922 
C 250.559337 185.584507 251.885268 183.600111 252.789832 181.416302 
C 253.694395 179.232492 254.16 176.891738 254.16 174.528 
C 254.16 172.164262 253.694395 169.823508 252.789832 167.639698 
C 251.885268 165.455889 250.559337 163.471493 248.887922 161.800078 
C 247.216507 160.128663 245.232111 158.802732 243.048302 157.898168 
C 240.864492 156.993605 238.523738 156.528 236.16 156.528 
" style="fill:none;stroke:#b0b0b0;stroke-linecap:square;stroke-width:0.8;"/>
     </g>
    </g>
    <g id="ytick_2">
     <g id="line2d_10">
      <path clip-path="url(#p4dd4cef6c7)" d="M 236.16 138.528 
C 231.432523 138.528 226.751015 139.45921 222.383396 141.268337 
C 218.015777 143.077464 214.046987 145.729325 210.704156 149.072156 
C 207.361325 152.414987 204.709464 156.383777 202.900337 160.751396 
C 201.09121 165.119015 200.16 169.800523 200.16 174.528 
C 200.16 179.255477 201.09121 183.936985 202.900337 188.304604 
C 204.709464 192.672223 207.361325 196.641013 210.704156 199.983844 
C 214.046987 203.326675 218.015777 205.978536 222.383396 207.787663 
C 226.751015 209.59679 231.432523 210.528 236.16 210.528 
C 240.887477 210.528 245.568985 209.59679 249.936604 207.787663 
C 254.304223 205.978536 258.273013 203.326675 261.615844 199.983844 
C 264.958675 196.641013 267.610536 192.672223 269.419663 188.304604 
C 271.22879 183.936985 272.16 179.255477 272.16 174.528 
C 272.16 169.800523 271.22879 165.119015 269.419663 160.751396 
C 267.610536 156.383777 264.958675 152.414987 261.615844 149.072156 
C 258.273013 145.729325 254.304223 143.077464 249.936604 141.268337 
C 245.568985 139.45921 240.887477 138.528 236.16 138.528 
" style="fill:none;stroke:#b0b0b0;stroke-linecap:square;stroke-width:0.8;"/>
     </g>
    </g>
    <g id="ytick_3">
     <g id="line2d_11">
      <path clip-path="url(#p4dd4cef6c7)" d="M 236.16 120.528 
C 229.068785 120.528 222.046523 121.924815 215.495095 124.638505 
C 208.943666 127.352196 202.99048 131.329988 197.976234 136.344234 
C 192.961988 141.35848 188.984196 147.311666 186.270505 153.863095 
C 183.556815 160.414523 182.16 167.436785 182.16 174.528 
C 182.16 181.619215 183.556815 188.641477 186.270505 195.192905 
C 188.984196 201.744334 192.961988 207.69752 197.976234 212.711766 
C 202.99048 217.726012 208.943666 221.703804 215.495095 224.417495 
C 222.046523 227.131185 229.068785 228.528 236.16 228.528 
C 243.251215 228.528 250.273477 227.131185 256.824905 224.417495 
C 263.376334 221.703804 269.32952 217.726012 274.343766 212.711766 
C 279.358012 207.69752 283.335804 201.744334 286.049495 195.192905 
C 288.763185 188.641477 290.16 181.619215 290.16 174.528 
C 290.16 167.436785 288.763185 160.414523 286.049495 153.863095 
C 283.335804 147.311666 279.358012 141.35848 274.343766 136.344234 
C 269.32952 131.329988 263.376334 127.352196 256.824905 124.638505 
C 250.273477 121.924815 243.251215 120.528 236.16 120.528 
" style="fill:none;stroke:#b0b0b0;stroke-linecap:square;stroke-width:0.8;"/>
     </g>
    </g>
    <g id="ytick_4">
     <g id="line2d_12">
      <path clip-path="url(#p4dd4cef6c7)" d="M 236.16 102.528 
C 226.705047 102.528 217.342031 104.39042 208.606793 108.008674 
C 199.871555 111.626928 191.933973 116.93065 185.248312 123.616312 
C 178.56265 130.301973 173.258928 138.239555 169.640674 146.974793 
C 166.02242 155.710031 164.16 165.073047 164.16 174.528 
C 164.16 183.982953 166.02242 193.345969 169.640674 202.081207 
C 173.258928 210.816445 178.56265 218.754027 185.248312 225.439688 
C 191.933973 232.12535 199.871555 237.429072 208.606793 241.047326 
C 217.342031 244.66558 226.705047 246.528 236.16 246.528 
C 245.614953 246.528 254.977969 244.66558 263.713207 241.047326 
C 272.448445 237.429072 280.386027 232.12535 287.071688 225.439688 
C 293.75735 218.754027 299.061072 210.816445 302.679326 202.081207 
C 306.29758 193.345969 308.16 183.982953 308.16 174.528 
C 308.16 165.073047 306.29758 155.710031 302.679326 146.974793 
C 299.061072 138.239555 293.75735 130.301973 287.071688 123.616312 
C 280.386027 116.93065 272.448445 111.626928 263.713207 108.008674 
C 254.977969 104.39042 245.614953 102.528 236.16 102.528 
" style="fill:none;stroke:#b0b0b0;stroke-linecap:square;stroke-width:0.8;"/>
     </g>
    </g>
    <g id="ytick_5">
     <g id="line2d_13">
      <path clip-path="url(#p4dd4cef6c7)" d="M 236.16 84.528 
C 224.341308 84.528 212.637538 86.856025 201.718491 91.378842 
C 190.799444 95.90166 180.877467 102.531313 172.52039 110.88839 
C 164.163313 119.245467 157.53366 129.167444 153.010842 140.086491 
C 148.488025 151.005538 146.16 162.709308 146.16 174.528 
C 146.16 186.346692 148.488025 198.050462 153.010842 208.969509 
C 157.53366 219.888556 164.163313 229.810533 172.52039 238.16761 
C 180.877467 246.524687 190.799444 253.15434 201.718491 257.677158 
C 212.637538 262.199975 224.341308 264.528 236.16 264.528 
C 247.978692 264.528 259.682462 262.199975 270.601509 257.677158 
C 281.520556 253.15434 291.442533 246.524687 299.79961 238.16761 
C 308.156687 229.810533 314.78634 219.888556 319.309158 208.969509 
C 323.831975 198.050462 326.16 186.346692 326.16 174.528 
C 326.16 162.709308 323.831975 151.005538 319.309158 140.086491 
C 314.78634 129.167444 308.156687 119.245467 299.79961 110.88839 
C 291.442533 102.531313 281.520556 95.90166 270.601509 91.378842 
C 259.682462 86.856025 247.978692 84.528 236.16 84.528 
" style="fill:none;stroke:#b0b0b0;stroke-linecap:square;stroke-width:0.8;"/>
     </g>
    </g>
    <g id="ytick_6">
     <g id="line2d_14">
      <path clip-path="url(#p4dd4cef6c7)" d="M 236.16 66.528 
C 221.97757 66.528 207.933046 69.321629 194.830189 74.74901 
C 181.727332 80.176392 169.82096 88.131975 159.792468 98.160468 
C 149.763975 108.18896 141.808392 120.095332 136.38101 133.198189 
C 130.953629 146.301046 128.16 160.34557 128.16 174.528 
C 128.16 188.71043 130.953629 202.754954 136.38101 215.857811 
C 141.808392 228.960668 149.763975 240.86704 159.792468 250.895532 
C 169.82096 260.924025 181.727332 268.879608 194.830189 274.30699 
C 207.933046 279.734371 221.97757 282.528 236.16 282.528 
C 250.34243 282.528 264.386954 279.734371 277.489811 274.30699 
C 290.592668 268.879608 302.49904 260.924025 312.527532 250.895532 
C 322.556025 240.86704 330.511608 228.960668 335.93899 215.857811 
C 341.366371 202.754954 344.16 188.71043 344.16 174.528 
C 344.16 160.34557 341.366371 146.301046 335.93899 133.198189 
C 330.511608 120.095332 322.556025 108.18896 312.527532 98.160468 
C 302.49904 88.131975 290.592668 80.176392 277.489811 74.74901 
C 264.386954 69.321629 250.34243 66.528 236.16 66.528 
" style="fill:none;stroke:#b0b0b0;stroke-linecap:square;stroke-width:0.8;"/>
     </g>
    </g>
    <g id="ytick_7">
     <g id="line2d_15">
      <path clip-path="url(#p4dd4cef6c7)" d="M 236.16 48.528 
C 219.613832 48.528 203.228554 51.787234 187.941888 58.119179 
C 172.655221 64.451123 158.764453 73.732638 147.064546 85.432546 
C 135.364638 97.132453 126.083123 111.023221 119.751179 126.309888 
C 113.419234 141.596554 110.16 157.981832 110.16 174.528 
C 110.16 191.074168 113.419234 207.459446 119.751179 222.746112 
C 126.083123 238.032779 135.364638 251.923547 147.064546 263.623454 
C 158.764453 275.323362 172.655221 284.604877 187.941888 290.936821 
C 203.228554 297.268766 219.613832 300.528 236.16 300.528 
C 252.706168 300.528 269.091446 297.268766 284.378112 290.936821 
C 299.664779 284.604877 313.555547 275.323362 325.255454 263.623454 
C 336.955362 251.923547 346.236877 238.032779 352.568821 222.746112 
C 358.900766 207.459446 362.16 191.074168 362.16 174.528 
C 362.16 157.981832 358.900766 141.596554 352.568821 126.309888 
C 346.236877 111.023221 336.955362 97.132453 325.255454 85.432546 
C 313.555547 73.732638 299.664779 64.451123 284.378112 58.119179 
C 269.091446 51.787234 252.706168 48.528 236.16 48.528 
" style="fill:none;stroke:#b0b0b0;stroke-linecap:square;stroke-width:0.8;"/>
     </g>
    </g>
   </g>
   <g id="patch_33">
    <path d="M 236.16 41.472 
C 218.687246 41.472 201.384393 44.913752 185.241673 51.600285 
C 169.098954 58.286818 154.430303 68.088097 142.0752 80.4432 
C 129.720097 92.798303 119.918818 107.466954 113.232285 123.609673 
C 106.545752 139.752393 103.104 157.055246 103.104 174.528 
C 103.104 192.000754 106.545752 209.303607 113.232285 225.446327 
C 119.918818 241.589046 129.720097 256.257697 142.0752 268.6128 
C 154.430303 280.967903 169.098954 290.769182 185.241673 297.455715 
C 201.384393 304.142248 218.687246 307.584 236.16 307.584 
C 253.632754 307.584 270.935607 304.142248 287.078327 297.455715 
C 303.221046 290.769182 317.889697 280.967903 330.2448 268.6128 
C 342.599903 256.257697 352.401182 241.589046 359.087715 225.446327 
C 365.774248 209.303607 369.216 192.000754 369.216 174.528 
C 369.216 157.055246 365.774248 139.752393 359.087715 123.609673 
C 352.401182 107.466954 342.599903 92.798303 330.2448 80.4432 
C 317.889697 68.088097 303.221046 58.286818 287.078327 51.600285 
C 270.935607 44.913752 253.632754 41.472 236.16 41.472 
" style="fill:none;stroke:#000000;stroke-linecap:square;stroke-linejoin:miter;stroke-width:0.8;"/>
   </g>
  </g>
 </g>
 <defs>
  <clipPath id="p4dd4cef6c7">
   <path d="M 369.216 174.528 
C 369.216 157.055246 365.774248 139.752393 359.087715 123.609673 
C 352.401182 107.466954 342.599903 92.798303 330.2448 80.4432 
C 317.889697 68.088097 303.221046 58.286818 287.078327 51.600285 
C 270.935607 44.913752 253.632754 41.472 236.16 41.472 
C 218.687246 41.472 201.384393 44.913752 185.241673 51.600285 
C 169.098954 58.286818 154.430303 68.088097 142.0752 80.4432 
C 129.720097 92.798303 119.918818 107.466954 113.232285 123.609673 
C 106.545752 139.752393 103.104 157.055246 103.104 174.528 
C 103.104 192.000754 106.545752 209.303607 113.232285 225.446327 
C 119.918818 241.589046 129.720097 256.257697 142.0752 268.6128 
C 154.430303 280.967903 169.098954 290.769182 185.241673 297.455715 
C 201.384393 304.142248 218.687246 307.584 236.16 307.584 
C 253.632754 307.584 270.935607 304.142248 287.078327 297.455715 
C 303.221046 290.769182 317.889697 280.967903 330.2448 268.6128 
C 342.599903 256.257697 352.401182 241.589046 359.087715 225.446327 
C 365.774248 209.303607 369.216 192.000754 369.216 174.528 
M 236.16 174.528 
C 236.16 174.528 236.16 174.528 236.16 174.528 
C 236.16 174.528 236.16 174.528 236.16 174.528 
C 236.16 174.528 236.16 174.528 236.16 174.528 
C 236.16 174.528 236.16 174.528 236.16 174.528 
C 236.16 174.528 236.16 174.528 236.16 174.528 
C 236.16 174.528 236.16 174.528 236.16 174.528 
C 236.16 174.528 236.16 174.528 236.16 174.528 
C 236.16 174.528 236.16 174.528 236.16 174.528 
C 236.16 174.528 236.16 174.528 236.16 174.528 
C 236.16 174.528 236.16 174.528 236.16 174.528 
C 236.16 174.528 236.16 174.528 236.16 174.528 
C 236.16 174.528 236.16 174.528 236.16 174.528 
C 236.16 174.528 236.16 174.528 236.16 174.528 
C 236.16 174.528 236.16 174.528 236.16 174.528 
C 236.16 174.528 236.16 174.528 236.16 174.528 
C 236.16 174.528 236.16 174.528 236.16 174.528 
M 369.216 174.528 
z
"/>
  </clipPath>
 </defs>
</svg>
